<svg width="83" height="84" viewBox="0 0 83 84" fill="none" xmlns="http://www.w3.org/2000/svg">
<path d="M62.4093 21.2385C60.936 19.7651 58.9974 18.9639 56.9037 18.9639C54.8359 18.9639 52.8715 19.7651 51.3981 21.2385C49.9248 22.7118 49.1235 24.6504 49.1235 26.744C49.1235 28.8377 49.9248 30.7763 51.3981 32.2496C52.8715 33.7229 54.81 34.5242 56.9037 34.5242C58.9715 34.5242 60.936 33.7229 62.4093 32.2496C63.8826 30.7763 64.6839 28.8377 64.6839 26.744C64.6839 24.6504 63.8826 22.7118 62.4093 21.2385ZM59.3334 29.1479C58.6872 29.7941 57.8342 30.1559 56.9296 30.1559C56.0249 30.1559 55.1719 29.7941 54.5257 29.1479C53.8795 28.5017 53.5177 27.6487 53.5177 26.744C53.5177 25.8394 53.8795 24.9864 54.5257 24.3402C55.1719 23.694 56.0249 23.3321 56.9296 23.3321C57.8342 23.3321 58.6872 23.694 59.3334 24.3402C60.6516 25.6584 60.6516 27.8038 59.3334 29.1479Z" fill="url(#paint0_linear)" fill-opacity="0.7"/>
<path d="M2.57195 68.3333C2.00329 68.3333 1.46049 68.1266 1.02108 67.6871C0.168104 66.8342 0.168104 65.4384 1.02108 64.5854L13.6606 51.9459C14.5136 51.0929 15.9094 51.0929 16.7624 51.9459C17.6153 52.7989 17.6153 54.1946 16.7624 55.0476L4.12281 67.6871C3.6834 68.1266 3.11475 68.3333 2.57195 68.3333Z" fill="url(#paint1_linear)" fill-opacity="0.7"/>
<path d="M5.38933 80.4557C4.82068 80.4557 4.27787 80.249 3.83846 79.8096C2.98549 78.9566 2.98549 77.5608 3.83846 76.7078L17.0208 63.5255C17.8738 62.6725 19.2696 62.6725 20.1225 63.5255C20.9755 64.3784 20.9755 65.7742 20.1225 66.6272L6.94019 79.8096C6.50078 80.249 5.95798 80.4557 5.38933 80.4557Z" fill="url(#paint2_linear)" fill-opacity="0.7"/>
<path d="M17.5119 83.2733C16.9432 83.2733 16.4004 83.0665 15.961 82.6271C15.108 81.7741 15.108 80.3784 15.961 79.5254L28.6006 66.8858C29.4535 66.0328 30.8493 66.0328 31.7023 66.8858C32.5553 67.7388 32.5553 69.1346 31.7023 69.9876L19.0628 82.6271C18.6233 83.0665 18.0805 83.2733 17.5119 83.2733Z" fill="url(#paint3_linear)" fill-opacity="0.7"/>
<path d="M82.1055 1.54269C81.6144 1.05158 80.9165 0.818952 80.2187 0.922343C79.9602 0.974038 73.9118 1.95625 65.6405 5.10968C60.7811 6.97072 56.1802 9.16778 51.9412 11.7009C46.7458 14.8026 42.0932 18.3696 38.0868 22.2984L21.5959 25.5294C21.1565 25.6069 20.7688 25.8137 20.4586 26.1239L5.49279 41.0381C4.82075 41.7101 4.66566 42.7699 5.10507 43.6228C5.49279 44.3466 6.24237 44.786 7.04365 44.786C7.17289 44.786 7.32798 44.7601 7.45722 44.7343L24.3358 41.4775C23.2243 43.6228 22.2163 45.8716 21.2599 48.1979C20.9239 49.025 21.1048 49.9555 21.7252 50.5759L25.8608 54.7115L22.0354 58.537C21.1824 59.39 21.1824 60.7857 22.0354 61.6387C22.4748 62.0781 23.0176 62.2849 23.5862 62.2849C24.1549 62.2849 24.6977 62.0781 25.1371 61.6387L28.9884 57.7874L33.124 61.923C33.5376 62.3366 34.1063 62.5692 34.6749 62.5692C34.9592 62.5692 35.2436 62.5175 35.502 62.4141C37.8283 61.4578 40.0512 60.4239 42.2225 59.3383L38.9398 76.2168C38.7589 77.1732 39.1983 78.1037 40.0512 78.569C40.3873 78.7499 40.7233 78.8275 41.0852 78.8275C41.6538 78.8275 42.2225 78.5948 42.636 78.1813L57.5502 63.2154C57.8603 62.9053 58.0671 62.5175 58.1447 62.0781L61.3498 45.5614C65.3045 41.5809 68.8715 36.9283 71.9732 31.707C74.5063 27.468 76.7034 22.8671 78.5644 18.0077C81.7178 9.73643 82.7259 3.68805 82.7517 3.42957C82.8293 2.73169 82.6225 2.0338 82.1055 1.54269ZM13.6607 39.0736L23.0693 29.6909L33.2016 27.7265C31.0045 30.4405 28.9626 33.3354 27.1015 36.463L13.6607 39.0736ZM53.9573 60.5789L44.5746 69.9875L47.1852 56.5467C50.3128 54.6857 53.2077 52.6437 55.9218 50.4466L53.9573 60.5789ZM74.4029 16.5602C71.6372 23.7718 66.5452 34.1626 57.9637 42.7182C54.009 46.6729 49.434 50.1623 44.2386 53.2123C44.1352 53.264 44.0576 53.3157 43.9801 53.3674C41.2144 54.97 38.2677 56.4433 35.1402 57.7874L32.0384 54.6857L38.2936 48.4305C39.1466 47.5775 39.1466 46.1818 38.2936 45.3288C37.4406 44.4758 36.0448 44.4758 35.1919 45.3288L28.9367 51.5839L25.835 48.4822C27.1791 45.3805 28.6524 42.4338 30.2549 39.6423C30.3066 39.5647 30.3583 39.4613 30.41 39.3838C33.4601 34.1884 36.9495 29.5875 40.9042 25.6586C49.4857 17.0772 59.8506 11.9852 67.0621 9.21947C71.4304 7.53937 75.2042 6.50546 77.6856 5.88511C77.1428 8.41819 76.083 12.192 74.4029 16.5602Z" fill="url(#paint4_linear)" fill-opacity="0.7"/>
<defs>
<linearGradient id="paint0_linear" x1="66.422" y1="16.8259" x2="45.044" y2="22.9144" gradientUnits="userSpaceOnUse">
<stop stop-color="#36EC7C"/>
<stop offset="1" stop-color="#119A8D"/>
</linearGradient>
<linearGradient id="paint1_linear" x1="19.3033" y1="48.9667" x2="-4.08235" y2="55.6244" gradientUnits="userSpaceOnUse">
<stop stop-color="#36EC7C"/>
<stop offset="1" stop-color="#119A8D"/>
</linearGradient>
<linearGradient id="paint2_linear" x1="22.7242" y1="60.4717" x2="-1.40728" y2="67.3418" gradientUnits="userSpaceOnUse">
<stop stop-color="#36EC7C"/>
<stop offset="1" stop-color="#119A8D"/>
</linearGradient>
<linearGradient id="paint3_linear" x1="34.2433" y1="63.9066" x2="10.8576" y2="70.5643" gradientUnits="userSpaceOnUse">
<stop stop-color="#36EC7C"/>
<stop offset="1" stop-color="#119A8D"/>
</linearGradient>
<linearGradient id="paint4_linear" x1="91.4702" y1="-9.80898" x2="-15.5724" y2="20.6692" gradientUnits="userSpaceOnUse">
<stop stop-color="#36EC7C"/>
<stop offset="1" stop-color="#119A8D"/>
</linearGradient>
</defs>
</svg>
