<svg width="213" height="213" viewBox="0 0 213 213" fill="none" xmlns="http://www.w3.org/2000/svg">
<g opacity="0.8" clip-path="url(#clip0)">
<path d="M76.3035 87.2474L76.0863 83.7732C78.1709 84.0772 79.1263 82.7743 79.3869 81.9058C79.6474 80.9938 80.0817 75.3047 80.0817 75.3047L73.3503 75.5218C73.3503 75.5218 71.3961 80.4726 71.8304 82.0361L69.3115 87.3343" stroke="white" stroke-width="0.434282" stroke-miterlimit="10"/>
<path d="M74.0885 75.522L79.9947 76.738C79.9947 76.738 82.0793 74.6968 81.9924 73.9151C81.9924 73.9151 73.9582 72.6991 72.7857 74.1757C72.7857 74.1757 70.5274 78.0842 71.9171 80.2991L73.7845 80.2556L73.6108 79.3002C73.6108 79.3002 72.612 77.8237 73.9582 77.5197L74.0885 75.522Z" fill="white" stroke="white" stroke-width="0.434282" stroke-miterlimit="10"/>
<path d="M62.8405 87.2473H69.3548C69.3548 87.2473 72.9593 90.1135 76.3033 87.2473L101.144 95.8895C101.796 96.1066 102.491 96.1066 103.142 95.8026L124.161 86.813C124.465 86.6827 124.769 86.813 124.943 87.117L126.029 89.2884C126.159 89.549 126.072 89.8964 125.811 90.0701L104.966 104.271C104.314 104.705 103.489 104.879 102.708 104.662L87.3341 100.71L78.2576 130.806H57.2383L54.372 99.5809L45.4693 103.359L54.372 114.173C54.676 114.564 54.6326 115.085 54.2852 115.432L52.5915 117.082C52.2441 117.43 51.6361 117.43 51.2886 117.082L37.6522 103.707C36.523 102.577 36.7836 100.667 38.1733 99.8849L60.4086 87.8553C61.1903 87.4644 62.0154 87.2473 62.8405 87.2473Z" stroke="white" stroke-width="0.434282" stroke-miterlimit="10"/>
<path d="M124.9 87.1172C124.9 87.1172 125.985 86.2052 127.288 86.3355C127.418 86.3355 127.549 86.4658 127.505 86.6395C127.462 86.9435 127.418 87.3778 127.549 87.3778C127.549 87.3778 129.546 86.9869 130.849 85.8578C130.98 85.7709 131.153 85.8578 131.11 86.0315C130.806 87.3344 129.633 90.5915 126.072 89.5926L124.9 87.1172Z" fill="white"/>
<path d="M54.2853 115.476C54.2853 115.476 58.4109 116.344 58.2806 119.297C58.2806 119.297 56.5435 118.429 56.0658 118.385C56.0658 118.385 53.3733 118.906 52.5916 117.126L54.2853 115.476Z" fill="white"/>
<path d="M53.7208 211.582L110.872 193.82C114.824 192.604 116.996 188.435 115.78 184.483C114.564 180.531 110.395 178.36 106.443 179.576L49.2911 197.338C45.3391 198.554 43.1677 202.723 44.3837 206.675C45.6431 210.583 49.8122 212.798 53.7208 211.582Z" fill="#61C4B3" stroke="white" stroke-width="0.434282" stroke-miterlimit="10"/>
<path d="M134.671 51.9834C144.409 51.9834 152.303 44.0894 152.303 34.3516C152.303 24.6138 144.409 16.7197 134.671 16.7197C124.933 16.7197 117.039 24.6138 117.039 34.3516C117.039 44.0894 124.933 51.9834 134.671 51.9834Z" fill="#61C4B3"/>
<path d="M134.671 51.9834C144.409 51.9834 152.303 44.0894 152.303 34.3516C152.303 24.6138 144.409 16.7197 134.671 16.7197C124.933 16.7197 117.039 24.6138 117.039 34.3516C117.039 44.0894 124.933 51.9834 134.671 51.9834Z" stroke="white" stroke-width="0.434282" stroke-miterlimit="10"/>
<path d="M134.671 46.8155C141.555 46.8155 147.135 41.2352 147.135 34.3516C147.135 27.468 141.555 21.8877 134.671 21.8877C127.787 21.8877 122.207 27.468 122.207 34.3516C122.207 41.2352 127.787 46.8155 134.671 46.8155Z" stroke="white" stroke-width="0.434282" stroke-miterlimit="10"/>
<path d="M134.671 45.4257C140.787 45.4257 145.745 40.4677 145.745 34.3515C145.745 28.2354 140.787 23.2773 134.671 23.2773C128.555 23.2773 123.597 28.2354 123.597 34.3515C123.597 40.4677 128.555 45.4257 134.671 45.4257Z" stroke="white" stroke-width="0.434282" stroke-miterlimit="10"/>
<path d="M164.984 87.9856C171.987 87.9856 177.665 82.3081 177.665 75.3046C177.665 68.301 171.987 62.6235 164.984 62.6235C157.98 62.6235 152.303 68.301 152.303 75.3046C152.303 82.3081 157.98 87.9856 164.984 87.9856Z" fill="#61C4B3"/>
<path d="M164.984 87.9856C171.987 87.9856 177.665 82.3081 177.665 75.3046C177.665 68.301 171.987 62.6235 164.984 62.6235C157.98 62.6235 152.303 68.301 152.303 75.3046C152.303 82.3081 157.98 87.9856 164.984 87.9856Z" stroke="white" stroke-width="0.434282" stroke-miterlimit="10"/>
<path d="M164.984 84.2942C169.949 84.2942 173.973 80.2694 173.973 75.3046C173.973 70.3397 169.949 66.3149 164.984 66.3149C160.019 66.3149 155.994 70.3397 155.994 75.3046C155.994 80.2694 160.019 84.2942 164.984 84.2942Z" stroke="white" stroke-width="0.434282" stroke-miterlimit="10"/>
<path d="M164.984 83.2956C169.397 83.2956 172.975 79.7179 172.975 75.3048C172.975 70.8916 169.397 67.314 164.984 67.314C160.571 67.314 156.993 70.8916 156.993 75.3048C156.993 79.7179 160.571 83.2956 164.984 83.2956Z" stroke="white" stroke-width="0.434282" stroke-miterlimit="10"/>
<path d="M175.754 40.9094C182.758 40.9094 188.435 35.232 188.435 28.2284C188.435 21.2249 182.758 15.5474 175.754 15.5474C168.75 15.5474 163.073 21.2249 163.073 28.2284C163.073 35.232 168.75 40.9094 175.754 40.9094Z" fill="#61C4B3"/>
<path d="M175.754 40.9094C182.758 40.9094 188.435 35.232 188.435 28.2284C188.435 21.2249 182.758 15.5474 175.754 15.5474C168.75 15.5474 163.073 21.2249 163.073 28.2284C163.073 35.232 168.75 40.9094 175.754 40.9094Z" stroke="white" stroke-width="0.434282" stroke-miterlimit="10"/>
<path d="M175.754 37.2181C180.719 37.2181 184.744 33.1933 184.744 28.2284C184.744 23.2636 180.719 19.2388 175.754 19.2388C170.789 19.2388 166.764 23.2636 166.764 28.2284C166.764 33.1933 170.789 37.2181 175.754 37.2181Z" stroke="white" stroke-width="0.434282" stroke-miterlimit="10"/>
<path d="M175.754 36.2194C180.167 36.2194 183.745 32.6418 183.745 28.2286C183.745 23.8154 180.167 20.2378 175.754 20.2378C171.341 20.2378 167.763 23.8154 167.763 28.2286C167.763 32.6418 171.341 36.2194 175.754 36.2194Z" stroke="white" stroke-width="0.434282" stroke-miterlimit="10"/>
<path d="M92.0679 7.4698L100.971 11.6389L112.349 0.217285L92.0679 7.4698Z" fill="white" stroke="white" stroke-width="0.434282" stroke-miterlimit="10" stroke-linecap="round" stroke-linejoin="round"/>
<path d="M105.183 20.5417L100.971 11.6389L112.349 0.217285L105.183 20.5417Z" stroke="white" stroke-width="0.434282" stroke-miterlimit="10" stroke-linecap="round" stroke-linejoin="round"/>
<path d="M140.708 111.133L146.874 114.303L155.126 106.486L140.708 111.133Z" fill="white" stroke="white" stroke-width="0.434282" stroke-miterlimit="10" stroke-linecap="round" stroke-linejoin="round"/>
<path d="M149.654 120.644L146.874 114.303L155.126 106.486L149.654 120.644Z" stroke="white" stroke-width="0.434282" stroke-miterlimit="10" stroke-linecap="round" stroke-linejoin="round"/>
<path d="M113.565 54.7632L111.697 63.3185L107.876 66.0545L112.088 69.0076L113.565 77.0419L116.04 68.8774L120.122 65.8808L115.78 62.9711L113.565 54.7632Z" fill="white"/>
<path d="M98.9729 36.2192L98.0175 40.4752L96.1067 41.8215L98.2347 43.3415L98.9729 47.3369L100.189 43.2546L102.23 41.778L100.059 40.3015L98.9729 36.2192Z" fill="white"/>
<path d="M97.1056 65.8806C98.017 65.8806 98.7559 65.1418 98.7559 64.2303C98.7559 63.3189 98.017 62.5801 97.1056 62.5801C96.1942 62.5801 95.4553 63.3189 95.4553 64.2303C95.4553 65.1418 96.1942 65.8806 97.1056 65.8806Z" fill="white"/>
<path d="M182.833 55.6751C183.337 55.6751 183.745 55.2667 183.745 54.7631C183.745 54.2594 183.337 53.8511 182.833 53.8511C182.329 53.8511 181.921 54.2594 181.921 54.7631C181.921 55.2667 182.329 55.6751 182.833 55.6751Z" fill="white"/>
<path d="M181.921 100.884C182.472 100.884 182.92 100.437 182.92 99.8851C182.92 99.3334 182.472 98.8862 181.921 98.8862C181.369 98.8862 180.922 99.3334 180.922 99.8851C180.922 100.437 181.369 100.884 181.921 100.884Z" fill="white"/>
<path d="M78.2577 130.806L92.9365 154.213C93.3273 154.821 93.501 155.56 93.4142 156.298L90.2439 189.911C90.2005 190.346 89.9399 190.693 89.5056 190.823L88.7674 191.084C88.1159 191.301 87.4211 190.823 87.4211 190.129L85.9445 158.687C85.9011 157.992 85.684 157.384 85.2497 156.819L71.6566 138.883L69.5721 139.274L73.6978 162.204C73.8281 162.986 73.6978 163.768 73.3069 164.419L54.2419 198.467C54.1116 198.727 53.8076 198.901 53.5036 198.901H52.3311C51.7231 198.901 51.3322 198.293 51.5494 197.729L66.0978 164.245C66.4887 163.377 66.4887 162.378 66.0544 161.509C64.0567 157.167 57.8899 143.052 57.195 130.849" stroke="white" stroke-width="0.434282" stroke-miterlimit="10"/>
<path d="M51.6795 198.901L51.4624 202.245C51.4624 202.419 51.5927 202.593 51.8098 202.593H53.2864C53.4167 202.593 53.547 202.506 53.5904 202.376L53.851 201.681C53.851 201.681 56.2395 203.07 58.8452 202.593V201.637C58.8452 201.637 54.459 200.334 53.8075 198.814L51.6795 198.901Z" fill="white" stroke="white" stroke-width="0.434282" stroke-miterlimit="10"/>
<path d="M88.0291 191.171L88.333 194.124C88.333 194.298 88.5068 194.428 88.6805 194.385L89.9833 194.168C90.1136 194.168 90.2005 194.037 90.2439 193.907L90.3742 193.256C90.3742 193.256 92.6759 194.124 94.8473 193.343L94.717 192.517C94.717 192.517 90.7216 192.04 89.9399 190.824L88.0291 191.171Z" fill="white" stroke="white" stroke-width="0.434282" stroke-miterlimit="10"/>
<path opacity="0.24" d="M93.4574 157.601H160.163C160.163 157.601 153.475 137.667 126.81 144.703C117.56 133.107 103.012 141.837 104.836 151.087C104.836 151.087 96.8882 148.655 92.5454 153.562" fill="white"/>
<path opacity="0.24" d="M196.556 169.066C194.559 169.066 192.604 169.414 190.824 170.065C187.784 166.157 183.007 163.594 177.665 163.594C168.458 163.594 161.032 171.064 161.032 180.227C161.032 180.618 161.032 181.009 161.075 181.356H180.488H194.255H212.625C210.714 174.278 204.243 169.066 196.556 169.066Z" fill="white"/>
<path d="M35.5243 155.734C33.5266 155.734 31.5723 156.081 29.7918 156.733C26.7518 152.824 21.9747 150.262 16.633 150.262C7.46965 150.305 0 157.731 0 166.938C0 167.329 0 167.72 0.0434282 168.067H19.4558H33.2226H51.5927C49.7253 160.988 43.2545 155.734 35.5243 155.734Z" fill="white"/>
<path d="M93.4574 157.601H160.163C160.163 157.601 153.475 137.667 126.81 144.703C117.56 133.107 103.012 141.837 104.836 151.087C104.836 151.087 96.8882 148.655 92.5454 153.562" stroke="white" stroke-width="0.434282" stroke-miterlimit="10"/>
<path d="M196.556 169.066C194.559 169.066 192.604 169.414 190.824 170.065C187.784 166.157 183.007 163.594 177.665 163.594C168.458 163.594 161.032 171.064 161.032 180.227C161.032 180.618 161.032 181.009 161.075 181.356H180.488H194.255H212.625C210.714 174.278 204.243 169.066 196.556 169.066Z" stroke="white" stroke-width="0.434282" stroke-miterlimit="10"/>
</g>
<defs>
<clipPath id="clip0">
<rect width="212.885" height="212.147" fill="white"/>
</clipPath>
</defs>
</svg>
