<svg width="263" height="172" viewBox="0 0 263 172" fill="none" xmlns="http://www.w3.org/2000/svg">
<g opacity="0.8" clip-path="url(#clip0)">
<path d="M33.9151 102.533C32.0079 102.533 30.1422 102.865 28.4423 103.487C25.54 99.7553 20.9793 97.3091 15.8796 97.3091C7.1313 97.3505 0 104.44 0 113.23C0 113.603 0 113.976 0.0414611 114.308H18.5746H31.7177H49.2557C47.4729 107.55 41.2952 102.533 33.9151 102.533Z" fill="white"/>
<path opacity="0.24" d="M235.913 111.157C233.675 111.157 231.477 111.572 229.487 112.277C226.087 107.882 220.739 105.062 214.768 105.062C204.486 105.062 196.152 113.396 196.152 123.679C196.152 124.093 196.152 124.549 196.194 124.964H217.919H233.343H253.908C251.793 117.003 244.537 111.157 235.913 111.157Z" fill="white"/>
<path d="M235.913 111.157C233.675 111.157 231.477 111.572 229.487 112.277C226.087 107.882 220.739 105.062 214.768 105.062C204.486 105.062 196.152 113.396 196.152 123.679C196.152 124.093 196.152 124.549 196.194 124.964H217.919H233.343H253.908C251.793 117.003 244.537 111.157 235.913 111.157Z" stroke="white" stroke-width="0.414611" stroke-miterlimit="10"/>
<path d="M85.2022 20.9794L84.8291 15.7553C87.8143 15.7553 88.9337 13.7237 89.0996 12.3969C89.2654 11.0702 88.7264 2.90234 88.7264 2.90234L79.2733 4.64371C79.2733 4.64371 77.5319 12.0652 78.4856 14.1798L76.7856 19.8599" stroke="white" stroke-width="0.414611" stroke-miterlimit="10"/>
<path d="M80.2685 4.47786L88.8509 4.9754C88.8509 4.9754 91.38 1.61705 91.1312 0.539062C91.1312 0.539062 79.5222 0.539062 78.1954 2.81942C78.1954 2.81942 75.8321 8.78981 78.2369 11.6092L80.8904 11.1531L80.4343 9.8678C80.4343 9.8678 78.7344 7.96059 80.5587 7.29721L80.2685 4.47786Z" fill="white" stroke="white" stroke-width="0.414611" stroke-miterlimit="10"/>
<path d="M93.5363 58.8745L90.6755 73.8005H62.1088C62.1088 73.8005 63.8916 56.76 63.3941 54.0236C62.8551 51.2871 59.4968 34.4539 59.4968 34.4539C57.5895 20.6059 71.1059 18.4085 76.8275 19.9011C78.5688 20.6474 79.7298 21.2279 80.559 21.601C81.5955 22.0985 82.7979 22.14 83.8344 21.6425C84.7051 21.2279 85.0782 20.8547 85.9904 21.0206C87.8561 21.3522 114.267 27.2812 114.267 27.2812L137.526 14.0551C137.858 13.8478 138.273 13.8893 138.604 14.138L140.139 15.3818C140.595 15.755 140.595 16.4184 140.18 16.7915C136.324 20.4816 119.284 36.6928 117.957 36.6928C116.464 36.6928 98.5945 34.4539 98.5945 34.4539L95.0703 52.0749" stroke="white" stroke-width="0.414611" stroke-miterlimit="10"/>
<path d="M70.1108 29.5615C70.1108 29.5615 78.9834 46.4776 80.6833 46.9752C82.3832 47.4727 109.126 57.755 109.996 57.7965L109.291 61.3622C109.291 61.3622 76.247 56.3039 73.552 55.0186C70.857 53.7333 62.938 40.6731 62.938 40.6731" stroke="white" stroke-width="0.414611" stroke-miterlimit="10"/>
<path d="M109.955 57.8382C109.955 57.8382 114.308 57.5895 114.806 58.0455C115.096 58.2943 116.133 59.3723 117.086 60.2844C117.459 60.6576 117.086 61.2795 116.547 61.1136C115.511 60.782 114.433 60.4503 114.225 60.4503C113.769 60.4088 111.821 62.1087 109.292 61.1551" fill="white"/>
<path d="M138.272 13.8482C138.272 13.8482 141.424 9.9094 142.253 9.61917C143.082 9.32895 146.482 9.37041 147.228 9.74356C147.974 10.1167 143.206 11.4849 143.123 12.1483C143.082 12.8531 141.962 15.3823 140.138 15.3408" fill="white"/>
<path d="M190.306 67.996H91.7119L92.9972 61.7354H190.306V67.996Z" stroke="white" stroke-width="0.414611" stroke-miterlimit="10"/>
<path d="M150.213 60.9063H161.242C164.02 60.9063 165.803 57.9626 164.517 55.5164L158.05 42.9951" stroke="white" stroke-width="1.65844" stroke-miterlimit="10" stroke-linecap="round" stroke-linejoin="round"/>
<path d="M157.055 50.0434C157.635 50.1263 158.133 49.7117 158.174 49.1313L162.901 9.70179C162.984 9.12134 162.569 8.6238 161.988 8.58234C161.408 8.49942 160.91 8.91403 160.869 9.49449L156.184 48.924C156.101 49.4629 156.516 50.0019 157.055 50.0434Z" fill="white"/>
<path d="M144.16 60.9062H128.363" stroke="white" stroke-width="1.65844" stroke-miterlimit="10" stroke-linecap="round" stroke-linejoin="round"/>
<path d="M172.768 67.9961H169.368V122.891H172.768V67.9961Z" fill="white"/>
<path d="M112.194 67.9961H108.794V142.046H112.194V67.9961Z" fill="white"/>
<path d="M90.7167 73.8008C90.7167 73.8008 125.668 77.4079 128.405 80.5589C131.141 83.71 138.272 135.827 138.272 135.827L134.417 137.319L120.859 91.5876L73.2201 91.173C73.2201 91.173 57.5478 89.0584 62.1085 73.8008" stroke="white" stroke-width="0.414611" stroke-miterlimit="10"/>
<path d="M86.4463 91.2559L112.567 95.1532C113.686 95.319 114.557 96.2312 114.598 97.3921L117.21 137.319H120.196L124.798 105.021" stroke="white" stroke-width="0.414611" stroke-miterlimit="10"/>
<path d="M103.57 93.8264V94.7385C103.57 97.1018 101.662 99.009 99.2991 99.009H67.001C64.6377 99.009 62.7305 97.1018 62.7305 94.7385V93.1216C62.7305 90.7583 64.6377 88.8511 67.001 88.8511H67.1668" stroke="white" stroke-width="0.414611" stroke-miterlimit="10"/>
<path d="M65.5083 140.056C65.5083 141.88 64.0572 143.331 62.2329 143.331C62.3988 141.133 62.8963 139.019 63.684 137.07C64.762 137.609 65.5083 138.77 65.5083 140.056Z" fill="white"/>
<path d="M104.109 136.987C101.331 129.441 94.614 123.761 86.4461 122.476V98.9673H79.2734V122.476C71.1885 123.761 64.5133 129.358 61.6939 136.821C60.9891 138.687 60.533 140.677 60.3257 142.709C60.8647 143.082 61.5281 143.331 62.2329 143.331C64.0572 143.331 65.5083 141.838 65.5083 140.055C65.5083 138.77 64.762 137.65 63.6426 137.111C66.2961 130.561 72.1421 125.71 79.2734 124.466H81.7196V137.029C80.4758 137.485 79.6051 138.687 79.6051 140.097C79.6051 141.921 81.0977 143.372 82.8805 143.372C84.6633 143.372 86.1559 141.879 86.1559 140.097C86.1559 138.687 85.2852 137.485 84.0414 137.029V124.466H86.4876C93.536 125.71 99.3405 130.478 102.036 136.946C100.667 137.36 99.6722 138.604 99.6722 140.097C99.6722 141.921 101.123 143.372 102.948 143.372C103.155 143.372 103.362 143.372 103.528 143.331C104.274 143.206 104.896 142.833 105.394 142.294C105.145 140.428 104.73 138.646 104.109 136.987Z" fill="white"/>
<path d="M103.487 143.289C103.279 143.331 103.114 143.331 102.906 143.331C101.082 143.331 99.6309 141.838 99.6309 140.055C99.6309 138.563 100.626 137.319 101.994 136.904C102.823 138.894 103.321 141.05 103.487 143.289Z" fill="white"/>
<path d="M65.5084 140.055C65.5084 141.879 64.0572 143.331 62.2329 143.331C61.5281 143.331 60.8647 143.082 60.3257 142.709C59.4965 142.128 58.9575 141.133 58.9575 140.055C58.9575 138.438 60.1599 137.07 61.694 136.821C61.8598 136.78 62.0671 136.78 62.2329 136.78C62.7305 136.78 63.228 136.904 63.6426 137.111C64.7621 137.609 65.5084 138.77 65.5084 140.055Z" fill="white"/>
<path d="M86.1563 140.055C86.1563 141.879 84.7052 143.331 82.8809 143.331C81.0566 143.331 79.6055 141.838 79.6055 140.055C79.6055 138.646 80.4762 137.443 81.72 136.987C82.0931 136.863 82.4663 136.78 82.8809 136.78C83.2955 136.78 83.6687 136.863 84.0418 136.987C85.2442 137.443 86.1563 138.646 86.1563 140.055Z" fill="white"/>
<path d="M106.182 140.055C106.182 140.884 105.85 141.672 105.352 142.253C104.896 142.792 104.233 143.165 103.487 143.289C103.279 143.331 103.114 143.331 102.906 143.331C101.082 143.331 99.6309 141.838 99.6309 140.055C99.6309 138.563 100.626 137.319 101.994 136.904C102.284 136.821 102.616 136.78 102.906 136.78C103.321 136.78 103.736 136.863 104.109 136.987C105.352 137.485 106.182 138.646 106.182 140.055Z" fill="white"/>
<path d="M117.252 137.319L116.754 142.045H119.823L120.361 141.133C120.361 141.133 123.015 143.04 128.281 142.916V140.884C128.281 140.884 119.823 140.097 120.237 137.277H117.252V137.319Z" fill="white"/>
<path d="M134.417 137.319L136.116 140.802L138.272 140.056V138.563C138.272 138.563 143.206 138.77 146.399 136.78V135.288C146.399 135.288 140.76 136.573 138.272 135.827L134.417 137.319Z" fill="white"/>
<path d="M181.185 171.193C198.29 171.193 212.156 157.326 212.156 140.221C212.156 123.116 198.29 109.25 181.185 109.25C164.08 109.25 150.213 123.116 150.213 140.221C150.213 157.326 164.08 171.193 181.185 171.193Z" fill="#61C4B3"/>
<path d="M181.185 171.193C198.29 171.193 212.156 157.326 212.156 140.221C212.156 123.116 198.29 109.25 181.185 109.25C164.08 109.25 150.213 123.116 150.213 140.221C150.213 157.326 164.08 171.193 181.185 171.193Z" stroke="white" stroke-width="0.414611" stroke-miterlimit="10"/>
<path d="M181.185 162.112C193.275 162.112 203.076 152.311 203.076 140.221C203.076 128.131 193.275 118.33 181.185 118.33C169.095 118.33 159.293 128.131 159.293 140.221C159.293 152.311 169.095 162.112 181.185 162.112Z" stroke="white" stroke-width="0.414611" stroke-miterlimit="10"/>
<path d="M181.185 159.666C191.924 159.666 200.63 150.96 200.63 140.221C200.63 129.482 191.924 120.776 181.185 120.776C170.446 120.776 161.74 129.482 161.74 140.221C161.74 150.96 170.446 159.666 181.185 159.666Z" stroke="white" stroke-width="0.414611" stroke-miterlimit="10"/>
<path d="M240.515 91.256C252.606 91.256 262.407 81.4549 262.407 69.3646C262.407 57.2743 252.606 47.4731 240.515 47.4731C228.425 47.4731 218.624 57.2743 218.624 69.3646C218.624 81.4549 228.425 91.256 240.515 91.256Z" fill="#61C4B3"/>
<path d="M240.515 91.256C252.606 91.256 262.407 81.4549 262.407 69.3646C262.407 57.2743 252.606 47.4731 240.515 47.4731C228.425 47.4731 218.624 57.2743 218.624 69.3646C218.624 81.4549 228.425 91.256 240.515 91.256Z" stroke="white" stroke-width="0.414611" stroke-miterlimit="10"/>
<path d="M240.516 84.8708C249.08 84.8708 256.022 77.9283 256.022 69.3643C256.022 60.8004 249.08 53.8579 240.516 53.8579C231.952 53.8579 225.009 60.8004 225.009 69.3643C225.009 77.9283 231.952 84.8708 240.516 84.8708Z" stroke="white" stroke-width="0.414611" stroke-miterlimit="10"/>
<path d="M240.516 83.1293C248.118 83.1293 254.281 76.9664 254.281 69.3642C254.281 61.762 248.118 55.5991 240.516 55.5991C232.913 55.5991 226.75 61.762 226.75 69.3642C226.75 76.9664 232.913 83.1293 240.516 83.1293Z" stroke="white" stroke-width="0.414611" stroke-miterlimit="10"/>
<path d="M194.204 31.2204C202.768 31.2204 209.71 24.2779 209.71 15.714C209.71 7.14999 202.768 0.20752 194.204 0.20752C185.64 0.20752 178.697 7.14999 178.697 15.714C178.697 24.2779 185.64 31.2204 194.204 31.2204Z" fill="#61C4B3"/>
<path d="M194.204 31.2204C202.768 31.2204 209.71 24.2779 209.71 15.714C209.71 7.14999 202.768 0.20752 194.204 0.20752C185.64 0.20752 178.697 7.14999 178.697 15.714C178.697 24.2779 185.64 31.2204 194.204 31.2204Z" stroke="white" stroke-width="0.414611" stroke-miterlimit="10"/>
<path d="M194.204 26.6595C200.249 26.6595 205.149 21.7589 205.149 15.7138C205.149 9.66863 200.249 4.76807 194.204 4.76807C188.158 4.76807 183.258 9.66863 183.258 15.7138C183.258 21.7589 188.158 26.6595 194.204 26.6595Z" stroke="white" stroke-width="0.414611" stroke-miterlimit="10"/>
<path d="M194.203 25.4155C199.562 25.4155 203.905 21.0718 203.905 15.7136C203.905 10.3554 199.562 6.01172 194.203 6.01172C188.845 6.01172 184.501 10.3554 184.501 15.7136C184.501 21.0718 188.845 25.4155 194.203 25.4155Z" stroke="white" stroke-width="0.414611" stroke-miterlimit="10"/>
</g>
<defs>
<clipPath id="clip0">
<rect width="262.614" height="171.4" fill="white"/>
</clipPath>
</defs>
</svg>
