<svg width="121" height="48" viewBox="0 0 121 48" fill="none" xmlns="http://www.w3.org/2000/svg">
<path d="M7.99881 37.6348C5.74562 39.7753 3.0418 40.9019 0 40.9019V35.9449C1.80255 35.9449 3.26712 35.3816 4.61903 34.1424C5.85828 33.0158 6.53423 31.5512 6.53423 29.7487V7.2168H11.4912V29.7487C11.4912 32.7905 10.252 35.3816 7.99881 37.6348Z" fill="#17A68B"/>
<path d="M20.7292 32.6774V7.3291H25.5736V32.6774H20.7292Z" fill="#17A68B"/>
<path d="M87.8743 29.1857C85.3958 31.7769 82.2413 33.1288 78.6362 33.1288C75.0311 33.1288 71.8767 31.8895 69.2855 29.411C66.6943 26.9325 65.4551 23.7781 65.4551 20.173C65.4551 16.5679 66.6943 13.4134 69.2855 10.9349C71.8767 8.34375 74.9185 7.10449 78.5236 7.10449C81.2274 7.10449 83.5932 7.89311 85.8464 9.35768C87.9869 10.8222 89.6768 12.8501 90.8034 15.3286L73.4539 26.5946C75.0311 27.8338 76.721 28.5098 78.6362 28.5098C81.0021 28.5098 82.9173 27.7211 84.3818 26.0313C85.9591 24.3414 86.7477 22.3135 86.7477 20.0603H91.7047C91.7047 23.3274 90.4655 26.4819 87.8743 29.1857ZM78.5236 11.8362C76.2704 11.8362 74.3552 12.6248 72.7779 14.3147C71.2007 15.8919 70.4121 17.9198 70.4121 20.173C70.4121 20.8489 70.5248 21.5249 70.7501 22.3135L83.8185 13.864C82.2413 12.3995 80.4388 11.8362 78.5236 11.8362Z" fill="#17A68B"/>
<path d="M115.138 32.6779V18.0322C115.138 16.3423 114.575 14.8777 113.335 13.7511C112.096 12.5119 110.632 11.9486 109.054 11.9486C107.364 11.9486 105.9 12.5119 104.773 13.7511C103.534 14.9904 102.971 16.4549 102.971 18.0322V32.6779H98.0137V18.0322C98.0137 15.103 99.1403 12.5119 101.393 10.2587C103.647 8.0055 106.238 6.87891 109.167 6.87891C112.096 6.87891 114.687 8.0055 116.828 10.2587C119.081 12.5119 120.208 15.103 120.208 18.0322V32.6779H115.138Z" fill="#17A68B"/>
<path d="M58.8081 34.9311C58.8081 42.1413 52.9498 47.9996 45.7396 47.9996C38.5294 47.9996 32.6711 42.1413 32.6711 34.9311C32.6711 34.8184 32.6711 34.7058 32.6711 34.4804H37.6281C37.6281 34.5931 37.6281 34.7058 37.6281 34.9311C37.6281 39.4374 41.2332 43.0425 45.7396 43.0425C50.246 43.0425 53.8511 39.4374 53.8511 34.9311C53.8511 34.8184 53.8511 34.3678 53.8511 32.3399C53.9637 32.3399 53.9637 32.2273 54.0764 32.2273C56.1043 30.988 57.7942 29.1854 58.8081 27.0449C58.6954 29.0728 58.8081 34.8184 58.8081 34.9311Z" fill="#17A68B"/>
<path d="M59.0334 0.00711634C57.4562 0.119776 56.217 1.47169 56.3296 3.16158C56.4423 4.96412 56.3296 6.20338 56.3296 6.20338C56.3296 6.20338 57.7942 5.97806 59.4841 5.8654C61.0613 5.75274 62.3006 4.40083 62.1879 2.71094C62.0752 1.13371 60.6107 -0.105543 59.0334 0.00711634Z" fill="#17A68B"/>
<path d="M57.5688 13.7517C55.0903 9.58335 55.5409 7.33016 55.5409 7.33016C55.5409 7.33016 53.851 8.68208 48.7813 7.33016C47.8801 7.10485 46.9788 6.99219 46.0775 6.99219C38.8673 6.99219 33.009 12.8505 33.009 20.0607C33.009 27.2709 38.8673 33.1291 46.0775 33.1291C53.2877 33.1291 59.146 27.2709 59.146 20.0607C59.146 17.8075 58.5827 15.667 57.5688 13.7517ZM46.0775 28.1721C41.5711 28.1721 37.966 24.567 37.966 20.0607C37.966 15.5543 41.5711 11.9492 46.0775 11.9492C50.5839 11.9492 54.189 15.5543 54.189 20.0607C54.189 24.567 50.5839 28.1721 46.0775 28.1721Z" fill="#17A68B"/>
</svg>
