<svg width="19" height="16" viewBox="0 0 19 16" fill="none" xmlns="http://www.w3.org/2000/svg">
<path d="M2.28513 3.26902C2.29666 3.15424 2.28093 3.03835 2.23923 2.93079C2.19753 2.82323 2.13102 2.72703 2.04513 2.65002L0.275133 0.517022V0.197021H5.77313L10.0231 9.51702L13.7591 0.197021H19.0001V0.516021L17.4851 1.96702C17.4217 2.01641 17.3727 2.08187 17.3432 2.15661C17.3136 2.23135 17.3046 2.31263 17.3171 2.39202V13.058C17.3044 13.1374 17.3133 13.2188 17.3429 13.2936C17.3724 13.3683 17.4216 13.4338 17.4851 13.483L18.9641 14.934V15.253H11.5281V14.934L13.0571 13.447C13.2091 13.297 13.2091 13.252 13.2091 13.023V4.40102L8.95013 15.218H8.37513L3.41713 4.40102V11.65C3.37613 11.955 3.47713 12.262 3.69213 12.483L5.68413 14.9V15.219H0.0361328V14.9L2.02813 12.483C2.13293 12.3738 2.21075 12.2416 2.25537 12.097C2.29999 11.9524 2.31018 11.7993 2.28513 11.65V3.26902Z" fill="url(#paint0_linear)"/>
<defs>
<linearGradient id="paint0_linear" x1="21.1184" y1="-1.87161" x2="-3.83758" y2="7.08069" gradientUnits="userSpaceOnUse">
<stop stop-color="#36EC7C"/>
<stop offset="1" stop-color="#119A8D"/>
</linearGradient>
</defs>
</svg>
