<svg width="20" height="19" viewBox="0 0 20 19" fill="none" xmlns="http://www.w3.org/2000/svg">
<path d="M14.9395 0.103516C16.2805 0.103516 17.5705 0.633516 18.5195 1.58452C19.4695 2.53352 20.0005 3.81352 20.0005 5.15352V13.0535C20.0005 15.8435 17.7305 18.1035 14.9395 18.1035H5.06049C2.26949 18.1035 0.000488281 15.8435 0.000488281 13.0535V5.15352C0.000488281 2.36352 2.25949 0.103516 5.06049 0.103516H14.9395ZM16.0705 5.30352C15.8605 5.29252 15.6605 5.36352 15.5095 5.50352L11.0005 9.10352C10.4205 9.58452 9.58949 9.58452 9.00049 9.10352L4.50049 5.50352C4.18949 5.27352 3.75949 5.30352 3.50049 5.57352C3.23049 5.84352 3.20049 6.27352 3.42949 6.57352L3.56049 6.70352L8.11049 10.2535C8.67049 10.6935 9.34949 10.9335 10.0605 10.9335C10.7695 10.9335 11.4605 10.6935 12.0195 10.2535L16.5305 6.64352L16.6105 6.56352C16.8495 6.27352 16.8495 5.85352 16.5995 5.56352C16.4605 5.41452 16.2695 5.32352 16.0705 5.30352Z" fill="url(#paint0_linear)"/>
<defs>
<linearGradient id="paint0_linear" x1="22.2345" y1="-2.36961" x2="-4.76776" y2="6.17509" gradientUnits="userSpaceOnUse">
<stop stop-color="#36EC7C"/>
<stop offset="1" stop-color="#119A8D"/>
</linearGradient>
</defs>
</svg>
