<svg width="318" height="383" viewBox="0 0 318 383" fill="none" xmlns="http://www.w3.org/2000/svg">
<path d="M69 127L127.34 223L278.142 137.549L364 201.901" stroke="url(#paint0_linear)"/>
<path d="M221.073 35.475L205.808 31.7126L216.699 20.3741L221.073 35.475Z" fill="url(#paint1_linear)"/>
<path d="M105.214 111.438L87.5502 106.342L100.795 93.5928L105.214 111.438Z" fill="url(#paint2_linear)"/>
<path d="M147.79 334.734L154.213 317.508L165.92 331.683L147.79 334.734Z" fill="url(#paint3_linear)"/>
<path d="M221.731 200.996L234.52 206.181L223.635 214.664L221.731 200.996Z" fill="url(#paint4_linear)"/>
<path d="M356 1L145 123.048L356 234" stroke="url(#paint5_linear)"/>
<path d="M362 111L70 53" stroke="url(#paint6_linear)"/>
<path d="M372.413 360.784L245.5 273.5L0.999939 302.5" stroke="url(#paint7_linear)"/>
<defs>
<linearGradient id="paint0_linear" x1="332.079" y1="175.527" x2="101.056" y2="238.381" gradientUnits="userSpaceOnUse">
<stop stop-color="#17A68B"/>
<stop offset="0.654608" stop-color="#17A68B" stop-opacity="0.462597"/>
<stop offset="1" stop-color="#17A68B" stop-opacity="0"/>
</linearGradient>
<linearGradient id="paint1_linear" x1="231.278" y1="40.5674" x2="207.421" y2="33.2598" gradientUnits="userSpaceOnUse">
<stop stop-color="#17A68B"/>
<stop offset="1" stop-color="#17A68B" stop-opacity="0"/>
</linearGradient>
<linearGradient id="paint2_linear" x1="105.214" y1="111.438" x2="95.4007" y2="99.6854" gradientUnits="userSpaceOnUse">
<stop stop-color="#17A68B" stop-opacity="0.56"/>
<stop offset="1" stop-color="#17A68B" stop-opacity="0"/>
</linearGradient>
<linearGradient id="paint3_linear" x1="147.79" y1="334.734" x2="160.255" y2="325.841" gradientUnits="userSpaceOnUse">
<stop stop-color="#17A68B" stop-opacity="0.56"/>
<stop offset="1" stop-color="#17A68B" stop-opacity="0"/>
</linearGradient>
<linearGradient id="paint4_linear" x1="221.731" y1="200.996" x2="228.139" y2="210.537" gradientUnits="userSpaceOnUse">
<stop stop-color="#17A68B" stop-opacity="0.56"/>
<stop offset="1" stop-color="#17A68B" stop-opacity="0"/>
</linearGradient>
<linearGradient id="paint5_linear" x1="370.278" y1="124.633" x2="201.663" y2="224.095" gradientUnits="userSpaceOnUse">
<stop stop-color="#17A68B"/>
<stop offset="1" stop-color="#17A68B" stop-opacity="0"/>
</linearGradient>
<linearGradient id="paint6_linear" x1="320.436" y1="102.563" x2="134.186" y2="95.7387" gradientUnits="userSpaceOnUse">
<stop offset="0.384832" stop-color="#17A68B"/>
<stop offset="1" stop-color="#17A68B" stop-opacity="0"/>
</linearGradient>
<linearGradient id="paint7_linear" x1="381" y1="341" x2="38" y2="394.5" gradientUnits="userSpaceOnUse">
<stop stop-color="#17A68B"/>
<stop offset="1" stop-color="#17A68B" stop-opacity="0"/>
</linearGradient>
</defs>
</svg>
