<svg width="1440" height="1059" viewBox="0 0 1440 1059" fill="none" xmlns="http://www.w3.org/2000/svg">
<path d="M-210 228.814L-9.5 140.314L156.5 205.314" stroke="url(#paint0_linear)"/>
<path d="M983.034 622.398L971.32 621.601L977.867 611.854L983.034 622.398Z" fill="url(#paint1_linear)"/>
<path d="M1217.03 686.188L1205.32 685.39L1211.87 675.644L1217.03 686.188Z" fill="url(#paint2_linear)"/>
<path d="M473.034 672.188L461.32 671.39L467.867 661.644L473.034 672.188Z" fill="url(#paint3_linear)"/>
<path d="M254.034 308.398L242.32 307.601L248.867 297.855L254.034 308.398Z" fill="url(#paint4_linear)"/>
<path d="M1285.03 303.398L1273.32 302.601L1279.87 292.855L1285.03 303.398Z" fill="url(#paint5_linear)"/>
<path d="M779.034 311.398L767.32 310.601L773.867 300.855L779.034 311.398Z" fill="url(#paint6_linear)"/>
<path d="M837.034 611.398L825.32 610.601L831.867 600.854L837.034 611.398Z" fill="url(#paint7_linear)"/>
<path d="M371.034 603.188L359.32 602.39L365.867 592.644L371.034 603.188Z" fill="url(#paint8_linear)"/>
<path d="M599.034 280.398L587.32 279.601L593.867 269.855L599.034 280.398Z" fill="url(#paint9_linear)"/>
<path d="M155.034 398.398L143.32 397.601L149.867 387.855L155.034 398.398Z" fill="url(#paint10_linear)"/>
<path d="M316.41 391.46L280.073 374.321L313.085 351.421L316.41 391.46Z" fill="url(#paint11_linear)"/>
<path d="M239.551 634.23L272.924 656.598L236.866 674.316L239.551 634.23Z" fill="url(#paint12_linear)"/>
<path d="M697.938 462.621L690.239 423.189L728.237 436.237L697.938 462.621Z" fill="url(#paint13_linear)"/>
<path d="M899.471 537.966L927.563 566.687L888.643 576.655L899.471 537.966Z" fill="url(#paint14_linear)"/>
<path d="M561.881 644.746L522.072 639.321L546.675 607.559L561.881 644.746Z" fill="url(#paint15_linear)"/>
<path d="M1194.47 396.757L1196.53 356.634L1230.25 378.481L1194.47 396.757Z" fill="url(#paint16_linear)"/>
<path d="M-400.5 664.71C21 682.71 145.5 353.318 377.5 471.71C668.5 620.209 715 475.711 867.5 442.21C1095.63 392.097 1214.5 590.21 1517.5 370.71" stroke="url(#paint17_linear)"/>
<path d="M167 659.768L258.5 718.268L334.5 650.268" stroke="url(#paint18_linear)"/>
<path d="M1013 551.711L872.5 498.711L785 551.711" stroke="url(#paint19_linear)"/>
<path d="M644.5 343.211L785 391.211" stroke="url(#paint20_linear)"/>
<path d="M1233.28 419.584L1333.11 351.69L1460.22 364.644" stroke="url(#paint21_linear)"/>
<defs>
<linearGradient id="paint0_linear" x1="120.5" y1="216.314" x2="-97.999" y2="390.112" gradientUnits="userSpaceOnUse">
<stop stop-color="#36EC7C" stop-opacity="0"/>
<stop offset="1" stop-color="#119A8D"/>
</linearGradient>
<linearGradient id="paint1_linear" x1="983.034" y1="622.398" x2="975.322" y2="616.386" gradientUnits="userSpaceOnUse">
<stop stop-color="#17A68B" stop-opacity="0.56"/>
<stop offset="1" stop-color="#17A68B" stop-opacity="0"/>
</linearGradient>
<linearGradient id="paint2_linear" x1="1217.03" y1="686.188" x2="1209.32" y2="680.175" gradientUnits="userSpaceOnUse">
<stop stop-color="#17A68B" stop-opacity="0.56"/>
<stop offset="1" stop-color="#17A68B" stop-opacity="0"/>
</linearGradient>
<linearGradient id="paint3_linear" x1="473.034" y1="672.188" x2="465.322" y2="666.175" gradientUnits="userSpaceOnUse">
<stop stop-color="#17A68B" stop-opacity="0.56"/>
<stop offset="1" stop-color="#17A68B" stop-opacity="0"/>
</linearGradient>
<linearGradient id="paint4_linear" x1="254.034" y1="308.398" x2="246.322" y2="302.386" gradientUnits="userSpaceOnUse">
<stop stop-color="#17A68B" stop-opacity="0.56"/>
<stop offset="1" stop-color="#17A68B" stop-opacity="0"/>
</linearGradient>
<linearGradient id="paint5_linear" x1="1285.03" y1="303.398" x2="1277.32" y2="297.386" gradientUnits="userSpaceOnUse">
<stop stop-color="#17A68B" stop-opacity="0.56"/>
<stop offset="1" stop-color="#17A68B" stop-opacity="0"/>
</linearGradient>
<linearGradient id="paint6_linear" x1="779.034" y1="311.398" x2="771.322" y2="305.386" gradientUnits="userSpaceOnUse">
<stop stop-color="#17A68B" stop-opacity="0.56"/>
<stop offset="1" stop-color="#17A68B" stop-opacity="0"/>
</linearGradient>
<linearGradient id="paint7_linear" x1="837.034" y1="611.398" x2="829.322" y2="605.386" gradientUnits="userSpaceOnUse">
<stop stop-color="#17A68B" stop-opacity="0.56"/>
<stop offset="1" stop-color="#17A68B" stop-opacity="0"/>
</linearGradient>
<linearGradient id="paint8_linear" x1="371.034" y1="603.188" x2="363.322" y2="597.175" gradientUnits="userSpaceOnUse">
<stop stop-color="#17A68B" stop-opacity="0.56"/>
<stop offset="1" stop-color="#17A68B" stop-opacity="0"/>
</linearGradient>
<linearGradient id="paint9_linear" x1="599.034" y1="280.398" x2="591.322" y2="274.386" gradientUnits="userSpaceOnUse">
<stop stop-color="#17A68B" stop-opacity="0.56"/>
<stop offset="1" stop-color="#17A68B" stop-opacity="0"/>
</linearGradient>
<linearGradient id="paint10_linear" x1="155.034" y1="398.398" x2="147.322" y2="392.386" gradientUnits="userSpaceOnUse">
<stop stop-color="#17A68B" stop-opacity="0.56"/>
<stop offset="1" stop-color="#17A68B" stop-opacity="0"/>
</linearGradient>
<linearGradient id="paint11_linear" x1="316.41" y1="391.46" x2="299.326" y2="362.689" gradientUnits="userSpaceOnUse">
<stop stop-color="#17A68B" stop-opacity="0.56"/>
<stop offset="1" stop-color="#17A68B" stop-opacity="0"/>
</linearGradient>
<linearGradient id="paint12_linear" x1="239.551" y1="634.23" x2="252.152" y2="665.227" gradientUnits="userSpaceOnUse">
<stop stop-color="#17A68B" stop-opacity="0.56"/>
<stop offset="1" stop-color="#17A68B" stop-opacity="0"/>
</linearGradient>
<linearGradient id="paint13_linear" x1="697.938" y1="462.621" x2="711.011" y2="431.82" gradientUnits="userSpaceOnUse">
<stop stop-color="#17A68B" stop-opacity="0.56"/>
<stop offset="1" stop-color="#17A68B" stop-opacity="0"/>
</linearGradient>
<linearGradient id="paint14_linear" x1="899.471" y1="537.966" x2="905.465" y2="570.885" gradientUnits="userSpaceOnUse">
<stop stop-color="#17A68B" stop-opacity="0.56"/>
<stop offset="1" stop-color="#17A68B" stop-opacity="0"/>
</linearGradient>
<linearGradient id="paint15_linear" x1="561.881" y1="644.746" x2="536.939" y2="622.441" gradientUnits="userSpaceOnUse">
<stop stop-color="#17A68B" stop-opacity="0.56"/>
<stop offset="1" stop-color="#17A68B" stop-opacity="0"/>
</linearGradient>
<linearGradient id="paint16_linear" x1="1194.47" y1="396.757" x2="1214.6" y2="370.03" gradientUnits="userSpaceOnUse">
<stop stop-color="#17A68B" stop-opacity="0.56"/>
<stop offset="1" stop-color="#17A68B" stop-opacity="0"/>
</linearGradient>
<linearGradient id="paint17_linear" x1="1558.28" y1="-127.302" x2="1042.16" y2="1523.82" gradientUnits="userSpaceOnUse">
<stop stop-color="#36EC7C"/>
<stop offset="1" stop-color="#119A8D"/>
</linearGradient>
<linearGradient id="paint18_linear" x1="300" y1="684.768" x2="175.131" y2="748.903" gradientUnits="userSpaceOnUse">
<stop stop-color="#36EC7C" stop-opacity="0"/>
<stop offset="1" stop-color="#119A8D"/>
</linearGradient>
<linearGradient id="paint19_linear" x1="996.5" y1="552.211" x2="858.49" y2="659.297" gradientUnits="userSpaceOnUse">
<stop stop-color="#36EC7C" stop-opacity="0"/>
<stop offset="1" stop-color="#119A8D"/>
</linearGradient>
<linearGradient id="paint20_linear" x1="758.5" y1="386.211" x2="617.755" y2="395.049" gradientUnits="userSpaceOnUse">
<stop stop-color="#36EC7C" stop-opacity="0"/>
<stop offset="1" stop-color="#119A8D"/>
</linearGradient>
<linearGradient id="paint21_linear" x1="1437.5" y1="371.211" x2="1364.26" y2="501.416" gradientUnits="userSpaceOnUse">
<stop stop-color="#36EC7C" stop-opacity="0"/>
<stop offset="1" stop-color="#119A8D"/>
</linearGradient>
</defs>
</svg>
