<svg width="53" height="53" viewBox="0 0 53 53" fill="none" xmlns="http://www.w3.org/2000/svg">
<g clip-path="url(#clip0)">
<path d="M52.0391 1.57447C51.9622 1.22882 51.6932 0.921571 51.3473 0.84476C51.0398 0.767948 43.8911 -1.03712 35.0898 0.883165C30.9006 1.7665 25.9042 3.64838 21.1768 7.41215C11.4531 3.03389 2.88243 15.9766 2.4981 16.5527C2.2675 16.9368 2.30593 17.4361 2.6134 17.7433L9.60832 24.81L10.9535 26.1542L10.1464 32.6448C10.108 32.952 10.2233 33.2208 10.4154 33.4513L10.9535 33.9506L4.53508 40.3643C4.15074 40.7484 4.15074 41.3629 4.53508 41.7085C4.72725 41.9006 4.95785 41.9774 5.22689 41.9774C5.49592 41.9774 5.72652 41.9006 5.91869 41.7085L12.2987 35.2948L17.6025 40.5564L8.26314 49.9274C7.87881 50.3114 7.87881 50.9259 8.26314 51.2716C8.45531 51.4636 8.68591 51.5404 8.95495 51.5404C9.22399 51.5404 9.45459 51.4636 9.64676 51.2716L19.0246 41.9006L19.3705 42.2462C19.5626 42.4382 19.7932 42.5151 20.0623 42.5151H20.1007L27.1725 42.2846L28.2871 43.3984L34.9361 50.273C35.1283 50.465 35.3589 50.5803 35.6279 50.5803C35.7816 50.5803 35.9738 50.5419 36.1275 50.4266C36.2813 50.3498 50.0405 41.939 45.6206 31.7614C50.617 25.5013 54.96 15.7078 52.0391 1.57447ZM35.4357 2.76505C42.4307 1.22882 48.4647 2.18896 50.3096 2.57302C52.4618 13.7107 50.2327 23.2737 43.7374 31.0317C43.1225 31.7614 42.5075 32.4527 41.8157 33.144C36.704 38.3288 30.9774 40.9404 29.2095 41.6701L28.2486 40.71L28.2102 40.6716L11.4147 23.8882C14.0282 17.8201 17.4488 12.9426 21.7149 9.37085C21.8302 9.29403 21.9455 9.21722 22.0224 9.10201C25.8658 5.99114 30.3241 3.87882 35.4357 2.76505ZM19.5242 8.83317C15.9499 12.0593 12.6446 16.4375 9.95422 22.4288L4.57351 16.9752C6.26459 14.6324 12.683 6.68244 19.5242 8.83317ZM20.3697 40.5948L12.1065 32.4143L12.683 27.8824L25.2893 40.4795L20.3697 40.5948ZM35.7048 48.3911L30.5931 43.1295C33.0144 42.0542 38.2414 39.4042 43.084 34.5266C43.4299 34.181 43.7758 33.8353 44.1217 33.4513C46.3509 40.5564 38.0877 46.7781 35.7048 48.3911Z" fill="url(#paint0_linear)"/>
<path d="M25.4045 24.8101L30.7852 19.4333C31.1696 19.0492 31.1696 18.4348 30.7852 18.0891L29.0173 16.3224L39.3944 13.442L36.704 23.9268L35.2435 22.4674C34.8592 22.0833 34.2443 22.0833 33.8984 22.4674L24.9433 31.3775C24.559 31.7616 24.559 32.3761 24.9433 32.7217C25.1355 32.9137 25.3661 32.9906 25.6351 32.9906C25.9042 32.9906 26.1348 32.9137 26.3269 32.7217L34.5517 24.5029L36.5503 26.5C36.7809 26.7304 37.1652 26.8456 37.4727 26.7304C37.8186 26.6536 38.0492 26.3848 38.1645 26.0391L41.662 12.3282C41.7388 11.9826 41.662 11.6369 41.3929 11.4065C41.1623 11.1761 40.778 11.0608 40.4705 11.1761L26.9034 14.9398C26.5575 15.0166 26.3269 15.2855 26.2116 15.6311C26.1348 15.9768 26.2116 16.3224 26.4422 16.5529L28.7098 18.8188L24.0209 23.4659C23.6366 23.85 23.6366 24.4645 24.0209 24.8101C24.4053 25.1942 25.0202 25.1942 25.4045 24.8101Z" fill="url(#paint1_linear)"/>
<path d="M21.5997 28.0361C22.2152 28.0361 22.7143 27.5375 22.7143 26.9224C22.7143 26.3072 22.2152 25.8086 21.5997 25.8086C20.9841 25.8086 20.4851 26.3072 20.4851 26.9224C20.4851 27.5375 20.9841 28.0361 21.5997 28.0361Z" fill="url(#paint2_linear)"/>
<path d="M10.0695 42.8994C9.68521 42.5153 9.07027 42.5153 8.72437 42.8994L0.268965 51.3486C-0.115371 51.7327 -0.115371 52.3472 0.268965 52.6929C0.461134 52.8849 0.691735 52.9617 0.960771 52.9617C1.22981 52.9617 1.46041 52.8849 1.65258 52.6929L10.108 44.2436C10.4539 43.8979 10.4539 43.2834 10.0695 42.8994Z" fill="url(#paint3_linear)"/>
<path d="M2.45969 45.1263C3.07463 45.1263 3.53583 44.627 3.53583 44.0509C3.53583 43.4365 3.03619 42.9756 2.45969 42.9756C1.84475 42.9756 1.38354 43.4749 1.38354 44.0509C1.38354 44.627 1.88318 45.1263 2.45969 45.1263Z" fill="url(#paint4_linear)"/>
</g>
<defs>
<linearGradient id="paint0_linear" x1="58.6386" y1="-7.07923" x2="-11.107" y2="12.4353" gradientUnits="userSpaceOnUse">
<stop stop-color="#36EC7C"/>
<stop offset="1" stop-color="#119A8D"/>
</linearGradient>
<linearGradient id="paint1_linear" x1="43.6961" y1="8.12742" x2="18.4078" y2="14.0439" gradientUnits="userSpaceOnUse">
<stop stop-color="#36EC7C"/>
<stop offset="1" stop-color="#119A8D"/>
</linearGradient>
<linearGradient id="paint2_linear" x1="22.9633" y1="25.5025" x2="19.901" y2="26.3753" gradientUnits="userSpaceOnUse">
<stop stop-color="#36EC7C"/>
<stop offset="1" stop-color="#119A8D"/>
</linearGradient>
<linearGradient id="paint3_linear" x1="11.5225" y1="41.1892" x2="-2.73462" y2="45.2621" gradientUnits="userSpaceOnUse">
<stop stop-color="#36EC7C"/>
<stop offset="1" stop-color="#119A8D"/>
</linearGradient>
<linearGradient id="paint4_linear" x1="3.77624" y1="42.6801" x2="0.819597" y2="43.5227" gradientUnits="userSpaceOnUse">
<stop stop-color="#36EC7C"/>
<stop offset="1" stop-color="#119A8D"/>
</linearGradient>
<clipPath id="clip0">
<rect width="53" height="53" fill="white"/>
</clipPath>
</defs>
</svg>
