<svg width="82" height="83" viewBox="0 0 82 83" fill="none" xmlns="http://www.w3.org/2000/svg">
<path d="M81.9999 66.0436C81.9485 65.4004 81.614 64.8086 81.0737 64.4484L57.7885 48.0072C56.9137 47.3897 55.7301 47.4926 54.984 48.2388L52.7198 50.503L49.1434 46.9266L64.401 31.669C66.1763 29.8937 67.154 27.5523 67.154 25.0565C67.154 22.5607 66.1763 20.1936 64.401 18.444C60.7731 14.8162 54.8553 14.7904 51.2017 18.4183L51.176 18.444L35.9184 33.7016L32.342 30.1252L34.6062 27.861C35.3523 27.1149 35.4552 25.9313 34.8377 25.0565L18.448 1.82274C18.0878 1.30815 17.496 0.973669 16.8528 0.896481C16.2096 0.845021 15.5921 1.07659 15.1289 1.51399L0.643214 16.0254C0.180083 16.4886 -0.0514828 17.1061 -2.37883e-05 17.7493C0.0514352 18.3926 0.385919 18.9843 0.926239 19.3445L24.2115 35.7857C24.5974 36.043 25.0348 36.1717 25.4722 36.1717C26.0382 36.1717 26.5786 35.9658 27.016 35.5284L29.2802 33.2642L32.8566 36.8406L26.7329 42.9643L19.1685 50.5287L19.1427 50.5545C15.5149 54.2081 15.5406 60.1258 19.1685 63.7537C20.9953 65.5805 23.3881 66.481 25.781 66.481C28.1738 66.481 30.5666 65.5805 32.3934 63.7537C32.3934 63.7537 32.3934 63.7537 32.3934 63.728L46.0815 50.0399L49.6579 53.6163L47.3937 55.8805C46.6476 56.6266 46.5447 57.8102 47.1622 58.685L63.5776 81.9702C63.9378 82.4848 64.5296 82.8193 65.1728 82.8965C65.2243 82.8965 65.3015 82.8965 65.3529 82.8965C65.919 82.8965 66.485 82.6649 66.8967 82.2532L81.3824 67.7675C81.8198 67.3301 82.0514 66.6869 81.9999 66.0436ZM5.55755 17.2862L16.3897 6.45406L20.635 12.4748L11.5783 21.5316L5.55755 17.2862ZM25.2149 31.1544L15.1804 24.0788L23.1823 16.0769L30.2579 26.1114L25.2149 31.1544ZM54.2121 21.6087L54.2378 21.583C56.1932 19.6276 59.358 19.6276 61.3134 21.583C62.2654 22.535 62.78 23.7958 62.78 25.1337C62.78 26.4716 62.2654 27.7324 61.3134 28.6844L53.7232 36.2746L46.6476 29.199L54.2121 21.6087ZM29.3059 60.6662C27.3505 62.6216 24.1857 62.6216 22.2303 60.6662C20.2748 58.7107 20.2748 55.546 22.2303 53.5905L22.256 53.5648L28.251 47.5698L35.3266 54.6455L29.3059 60.6662ZM38.4141 51.5579L31.3385 44.4823L43.5858 32.235L50.6614 39.3107L38.4141 51.5579ZM51.742 57.6815L56.785 52.6386L66.8195 59.7142L58.8176 67.7161L51.742 57.6815ZM65.636 77.3646L61.3906 71.3439L70.4474 62.2871L76.4681 66.5325L65.636 77.3646Z" fill="url(#paint0_linear)"/>
<defs>
<linearGradient id="paint0_linear" x1="91.1682" y1="-10.378" x2="-21.5075" y2="21.7146" gradientUnits="userSpaceOnUse">
<stop stop-color="#5F6CE6"/>
<stop offset="1" stop-color="#78C2F2"/>
</linearGradient>
</defs>
</svg>
