<svg width="261" height="211" viewBox="0 0 261 211" fill="none" xmlns="http://www.w3.org/2000/svg">
<g opacity="0.8" clip-path="url(#clip0)">
<path opacity="0.1" d="M132.466 120.085L123.569 135.593L71.9261 136.785L76.7474 151.001H0.94873C1.44577 135.046 14.5179 122.322 30.5723 122.322C34.2007 122.322 37.6303 122.968 40.8611 124.161C49.7084 107.261 67.403 95.6802 87.8314 95.6802C106.57 95.6802 123.072 105.422 132.466 120.085Z" fill="white"/>
<path d="M203.344 26.5916L205.431 21.7703C202.996 21.4224 202.3 19.6331 202.3 18.5396C202.3 17.4461 203.642 10.8354 203.642 10.8354L211.147 13.2709C211.147 13.2709 211.744 19.5337 210.7 21.1242L211.793 27.9336" stroke="white" stroke-width="0.49704" stroke-miterlimit="10"/>
<path d="M210.401 13.0223L203.343 12.4755C203.343 12.4755 201.653 9.4436 202.001 8.59863C202.001 8.59863 211.495 9.89094 212.34 11.8791C212.34 11.8791 213.632 17.0483 211.346 19.0862L209.208 18.44L209.705 17.4459C209.705 17.4459 211.296 16.1039 209.855 15.3087L210.401 13.0223Z" fill="white" stroke="white" stroke-width="0.49704" stroke-miterlimit="10"/>
<path d="M189.228 58.7499L188.73 69.6351L213.881 72.4185L225.313 37.6257C226.704 26.989 211.793 27.9334 211.793 27.9334C205.779 32.4565 203.443 26.5417 203.443 26.5417C202.996 26.492 199.964 26.492 197.876 26.5417C196.633 26.5417 195.441 27.0387 194.546 27.8837L182.07 39.5641L162.387 30.9156L161.244 34.5937C161.244 34.5937 181.026 46.6718 182.667 45.8765C184.307 45.131 189.774 41.0552 189.774 41.0552L189.377 52.1392" stroke="white" stroke-width="0.49704" stroke-miterlimit="10"/>
<path d="M217.31 35.3398L206.376 51.4439L179.386 53.6309V58.3528L210.352 59.5457L220.591 51.7919" stroke="white" stroke-width="0.49704" stroke-miterlimit="10"/>
<path d="M213.831 72.4688L217.807 110.045L221.336 123.763" stroke="white" stroke-width="0.49704" stroke-miterlimit="10"/>
<path d="M188.681 69.6353L187.19 112.927L189.874 131.368" stroke="white" stroke-width="0.49704" stroke-miterlimit="10"/>
<path d="M195.44 127.938V110.244L198.87 81.2661H201.206L211.048 113.077L215.322 123.465" stroke="white" stroke-width="0.49704" stroke-miterlimit="10"/>
<path d="M143.251 11.5312L140.816 13.1715L179.386 62.0802C179.784 62.627 180.579 62.7264 181.126 62.2791C181.673 61.8814 181.722 61.0862 181.325 60.5891L143.251 11.5312Z" fill="#61C4B3"/>
<path d="M179.386 54.1274L176.503 53.8789C176.305 53.8789 176.205 54.0777 176.305 54.2268L176.802 55.0221C176.802 55.0221 174.565 55.0718 173.273 53.9783C173.074 53.8292 172.825 53.9783 172.875 54.2268C173.173 55.5688 174.466 57.9546 179.436 56.7617" fill="white"/>
<path d="M179.386 54.1274L176.503 53.8789C176.305 53.8789 176.205 54.0777 176.305 54.2268L176.802 55.0221C176.802 55.0221 174.565 55.0718 173.273 53.9783C173.074 53.8292 172.825 53.9783 172.875 54.2268C173.173 55.5688 174.466 57.9546 179.436 56.7617" stroke="white" stroke-width="0.49704" stroke-miterlimit="10"/>
<path d="M162.039 31.8604C162.039 31.8604 157.516 29.922 154.783 32.7054C154.584 32.9042 154.733 33.2024 154.981 33.2024L159.554 33.5007L158.709 34.7433C158.56 34.9421 158.759 35.2403 159.007 35.1906L161.393 33.9977" fill="white"/>
<path d="M162.039 31.8604C162.039 31.8604 157.516 29.922 154.783 32.7054C154.584 32.9042 154.733 33.2024 154.981 33.2024L159.554 33.5007L158.709 34.7433C158.56 34.9421 158.759 35.2403 159.007 35.1906L161.393 33.9977" stroke="white" stroke-width="0.49704" stroke-miterlimit="10"/>
<path d="M128.191 24.3552C128.191 24.3552 138.331 6.66056 155.677 0.348145L156.97 3.97654C156.97 3.97654 143.5 6.41204 128.191 24.3552Z" fill="white" stroke="white" stroke-width="0.49704" stroke-miterlimit="10"/>
<path d="M142.158 12.6247L142.804 12.1277C143.5 11.5809 143.599 10.5372 143.052 9.89101L142.555 9.24486C142.009 8.549 140.965 8.44959 140.319 8.99634L139.673 9.49338C138.977 10.0401 138.877 11.0839 139.424 11.7301L139.921 12.3762C140.468 13.0721 141.462 13.1715 142.158 12.6247Z" fill="white" stroke="white" stroke-width="0.49704" stroke-miterlimit="10"/>
<path d="M127.942 99.2092C143.562 99.2092 156.224 86.5471 156.224 70.9276C156.224 55.3081 143.562 42.646 127.942 42.646C112.323 42.646 99.6609 55.3081 99.6609 70.9276C99.6609 86.5471 112.323 99.2092 127.942 99.2092Z" fill="#61C4B3"/>
<path d="M127.942 99.2092C143.562 99.2092 156.224 86.5471 156.224 70.9276C156.224 55.3081 143.562 42.646 127.942 42.646C112.323 42.646 99.6609 55.3081 99.6609 70.9276C99.6609 86.5471 112.323 99.2092 127.942 99.2092Z" stroke="white" stroke-width="0.49704" stroke-miterlimit="10"/>
<path d="M127.943 90.9584C139.005 90.9584 147.973 81.9904 147.973 70.9277C147.973 59.865 139.005 50.897 127.943 50.897C116.88 50.897 107.912 59.865 107.912 70.9277C107.912 81.9904 116.88 90.9584 127.943 90.9584Z" stroke="white" stroke-width="0.49704" stroke-miterlimit="10"/>
<path d="M127.943 88.6723C137.743 88.6723 145.687 80.7279 145.687 70.9279C145.687 61.128 137.743 53.1836 127.943 53.1836C118.143 53.1836 110.198 61.128 110.198 70.9279C110.198 80.7279 118.143 88.6723 127.943 88.6723Z" stroke="white" stroke-width="0.49704" stroke-miterlimit="10"/>
<path d="M73.7153 141.855L88.0301 180.575C89.3721 184.154 92.752 186.539 96.5792 186.539H140.368C144.047 186.539 147.377 184.303 148.768 180.923L164.823 141.905" stroke="white" stroke-width="0.49704" stroke-miterlimit="10"/>
<path d="M152.695 165.017H258.117C259.658 165.017 260.901 163.675 260.752 162.134C256.726 115.413 197.975 112.281 181.523 138.376C181.523 138.376 153.888 136.04 150.11 162.035C149.862 163.576 151.104 165.017 152.695 165.017Z" fill="white"/>
<path d="M152.695 165.017H258.117C259.658 165.017 260.901 163.675 260.752 162.134C256.726 115.413 197.975 112.281 181.523 138.376C181.523 138.376 153.888 136.04 150.11 162.035C149.862 163.576 151.104 165.017 152.695 165.017Z" stroke="white" stroke-width="0.49704" stroke-miterlimit="10"/>
<path d="M118.598 129.33H75.2561C75.2561 117.351 84.9484 107.659 96.9271 107.659C106.918 107.659 115.367 114.419 117.852 123.614C118.349 125.453 118.598 127.342 118.598 129.33Z" fill="#61C4B3"/>
<path d="M75.2561 129.33C75.2561 117.351 84.9484 107.659 96.9271 107.659C106.918 107.659 115.318 114.419 117.852 123.614C118.349 125.453 118.598 127.342 118.598 129.33" stroke="white" stroke-width="0.49704" stroke-miterlimit="10"/>
<path d="M112.236 129.33H81.5686C81.5686 120.881 88.4278 114.021 96.8774 114.021C105.377 114.021 112.236 120.881 112.236 129.33Z" stroke="white" stroke-width="0.49704" stroke-miterlimit="10"/>
<path d="M110.546 129.33H83.3579C83.3579 121.825 89.4715 115.711 96.9768 115.711C104.432 115.711 110.546 121.825 110.546 129.33Z" stroke="white" stroke-width="0.49704" stroke-miterlimit="10"/>
<path d="M141.959 129.33H137.685C137.635 129.429 137.585 129.479 137.535 129.578C137.486 129.479 137.436 129.429 137.436 129.33H114.423C115.119 127.192 116.262 125.204 117.853 123.614C120.487 120.88 124.165 119.24 128.191 119.24C130.776 119.24 133.211 119.936 135.348 121.129C136.989 122.073 138.48 123.365 139.623 124.856C139.921 125.254 140.219 125.701 140.518 126.099C141.114 127.143 141.611 128.186 141.959 129.33Z" fill="#61C4B3"/>
<path d="M141.959 129.33H137.685C137.635 129.429 137.585 129.479 137.535 129.578C137.486 129.479 137.436 129.429 137.436 129.33H114.423C115.119 127.192 116.262 125.204 117.853 123.614C120.487 120.88 124.165 119.24 128.191 119.24C130.776 119.24 133.211 119.936 135.348 121.129C136.989 122.073 138.48 123.365 139.623 124.856C139.921 125.254 140.219 125.701 140.518 126.099C141.114 127.143 141.611 128.186 141.959 129.33Z" stroke="white" stroke-width="0.49704" stroke-miterlimit="10"/>
<path d="M137.436 129.329H118.946C120.586 125.85 124.115 123.464 128.191 123.464C129.682 123.464 131.124 123.812 132.416 124.359C134.155 125.154 135.647 126.447 136.69 127.987C136.989 128.435 137.237 128.882 137.436 129.329Z" stroke="white" stroke-width="0.49704" stroke-miterlimit="10"/>
<path d="M136.144 129.33H120.239C121.779 126.546 124.762 124.608 128.191 124.608C129.483 124.608 130.676 124.856 131.77 125.353C133.559 126.149 135.05 127.441 136.044 129.131C136.094 129.23 136.144 129.28 136.144 129.33Z" stroke="white" stroke-width="0.49704" stroke-miterlimit="10"/>
<path d="M166.115 129.33H137.684C137.635 129.429 137.585 129.479 137.535 129.578C137.486 129.479 137.436 129.429 137.436 129.33H129.881C130.378 127.938 131.024 126.596 131.77 125.353C131.968 125.005 132.167 124.707 132.416 124.409C133.261 123.216 134.255 122.123 135.348 121.178C138.728 118.196 143.152 116.407 148.023 116.407C156.423 116.357 163.58 121.775 166.115 129.33Z" fill="#61C4B3"/>
<path d="M166.115 129.33H137.684C137.635 129.429 137.585 129.479 137.535 129.578C137.486 129.479 137.436 129.429 137.436 129.33H129.881C130.378 127.938 131.024 126.596 131.77 125.353C131.968 125.005 132.167 124.707 132.416 124.409C133.261 123.216 134.255 122.123 135.348 121.178C138.728 118.196 143.152 116.407 148.023 116.407C156.423 116.357 163.58 121.775 166.115 129.33Z" stroke="white" stroke-width="0.49704" stroke-miterlimit="10"/>
<path d="M160.051 129.33H137.684C137.635 129.429 137.585 129.479 137.535 129.578C137.486 129.479 137.436 129.429 137.436 129.33H135.945C135.995 129.28 135.995 129.181 136.044 129.131C136.243 128.733 136.492 128.385 136.69 128.038C137.486 126.845 138.48 125.751 139.623 124.856C141.909 123.067 144.842 121.974 147.973 121.974C153.242 121.974 157.815 124.956 160.051 129.33Z" stroke="white" stroke-width="0.49704" stroke-miterlimit="10"/>
<path d="M137.684 129.33C138.43 128.087 139.374 126.993 140.517 126.148C142.555 124.508 145.19 123.514 148.023 123.514C152.397 123.514 156.224 125.85 158.311 129.33H137.684Z" stroke="white" stroke-width="0.49704" stroke-miterlimit="10"/>
<path d="M171.682 129.33H66.8562V141.855H171.682V129.33Z" fill="white"/>
<path d="M137.685 129.33C137.635 129.429 137.585 129.479 137.535 129.579C137.486 129.479 137.436 129.429 137.436 129.33H137.685Z" fill="white"/>
<path d="M126.75 195.138H111.49" stroke="white" stroke-width="0.49704" stroke-miterlimit="10"/>
<path d="M96.1816 192.205V186.539H142.357V192.454" stroke="white" stroke-width="0.49704" stroke-miterlimit="10"/>
<path d="M102.643 189.87C97.1261 189.87 92.603 194.343 92.603 199.91C92.603 205.427 97.0764 209.95 102.643 209.95C108.21 209.95 112.683 205.477 112.683 199.91C112.683 194.343 108.21 189.87 102.643 189.87ZM102.643 203.687C100.556 203.687 98.816 201.997 98.816 199.86C98.816 197.773 100.506 196.033 102.643 196.033C104.781 196.033 106.47 197.723 106.47 199.86C106.47 201.997 104.781 203.687 102.643 203.687Z" fill="white" stroke="white" stroke-width="0.49704" stroke-miterlimit="10"/>
<path d="M135.597 189.87C130.08 189.87 125.557 194.343 125.557 199.91C125.557 205.427 130.03 209.95 135.597 209.95C141.114 209.95 145.637 205.477 145.637 199.91C145.637 194.343 141.164 189.87 135.597 189.87ZM135.597 203.687C133.509 203.687 131.77 201.997 131.77 199.86C131.77 197.773 133.46 196.033 135.597 196.033C137.684 196.033 139.424 197.723 139.424 199.86C139.424 201.997 137.684 203.687 135.597 203.687Z" fill="white" stroke="white" stroke-width="0.49704" stroke-miterlimit="10"/>
<path d="M202.3 180.674L142.357 192.454V189.82L201.753 178.04L202.3 180.674Z" stroke="white" stroke-width="0.49704" stroke-miterlimit="10"/>
<path d="M213.334 179.233L202.349 181.271L201.703 177.493L212.539 175.356L213.334 179.233Z" stroke="white" stroke-width="0.49704" stroke-miterlimit="10"/>
<path d="M89.0242 167.502H51.6467V172.622H89.0242V167.502Z" fill="#61C4B3" stroke="white" stroke-width="0.49704" stroke-miterlimit="10"/>
<path d="M80.0776 167.502V172.622" stroke="white" stroke-width="0.49704" stroke-miterlimit="10"/>
<path d="M83.2585 167.502V172.622" stroke="white" stroke-width="0.49704" stroke-miterlimit="10"/>
<path d="M86.3899 167.502V172.622" stroke="white" stroke-width="0.49704" stroke-miterlimit="10"/>
<path d="M81.7676 173.964H44.3901V179.084H81.7676V173.964Z" fill="#61C4B3" stroke="white" stroke-width="0.49704" stroke-miterlimit="10"/>
<path d="M72.8208 173.964V179.084" stroke="white" stroke-width="0.49704" stroke-miterlimit="10"/>
<path d="M76.0017 173.964V179.084" stroke="white" stroke-width="0.49704" stroke-miterlimit="10"/>
<path d="M79.1829 173.964V179.084" stroke="white" stroke-width="0.49704" stroke-miterlimit="10"/>
<path d="M85.4455 181.171H48.0681V186.29H85.4455V181.171Z" fill="#61C4B3" stroke="white" stroke-width="0.49704" stroke-miterlimit="10"/>
<path d="M76.4988 181.171V186.29" stroke="white" stroke-width="0.49704" stroke-miterlimit="10"/>
<path d="M79.6799 181.171V186.29" stroke="white" stroke-width="0.49704" stroke-miterlimit="10"/>
<path d="M82.8611 181.171V186.29" stroke="white" stroke-width="0.49704" stroke-miterlimit="10"/>
<path d="M89.1238 188.428H51.7463V193.548H89.1238V188.428Z" fill="#61C4B3" stroke="white" stroke-width="0.49704" stroke-miterlimit="10"/>
<path d="M80.177 188.428V193.548" stroke="white" stroke-width="0.49704" stroke-miterlimit="10"/>
<path d="M83.3579 188.428V193.548" stroke="white" stroke-width="0.49704" stroke-miterlimit="10"/>
<path d="M86.5391 188.428V193.548" stroke="white" stroke-width="0.49704" stroke-miterlimit="10"/>
<path d="M82.8608 195.635H45.4834V200.754H82.8608V195.635Z" fill="#61C4B3" stroke="white" stroke-width="0.49704" stroke-miterlimit="10"/>
<path d="M73.9143 195.635V200.754" stroke="white" stroke-width="0.49704" stroke-miterlimit="10"/>
<path d="M77.0457 195.635V200.754" stroke="white" stroke-width="0.49704" stroke-miterlimit="10"/>
<path d="M80.2266 195.635V200.754" stroke="white" stroke-width="0.49704" stroke-miterlimit="10"/>
<path d="M87.5828 202.941H50.2053V208.061H87.5828V202.941Z" fill="#61C4B3" stroke="white" stroke-width="0.49704" stroke-miterlimit="10"/>
<path d="M78.6362 202.941V208.061" stroke="white" stroke-width="0.49704" stroke-miterlimit="10"/>
<path d="M81.8171 202.941V208.061" stroke="white" stroke-width="0.49704" stroke-miterlimit="10"/>
<path d="M84.9983 202.941V208.061" stroke="white" stroke-width="0.49704" stroke-miterlimit="10"/>
<path d="M76.7474 151.001H0.94873C1.44577 135.046 14.5179 122.322 30.5723 122.322C34.2007 122.322 37.6303 122.968 40.8611 124.161C49.7084 107.261 67.403 95.6802 87.8314 95.6802C106.57 95.6802 123.022 105.422 132.466 120.085" stroke="white" stroke-width="0.49704" stroke-miterlimit="10"/>
</g>
<defs>
<clipPath id="clip0">
<rect width="260.3" height="210.149" fill="white" transform="translate(0.700195)"/>
</clipPath>
</defs>
</svg>
