<svg width="19" height="17" viewBox="0 0 19 17" fill="none" xmlns="http://www.w3.org/2000/svg">
<path d="M5.0798 16C6.55849 16.0495 8.0321 15.802 9.41354 15.2723C10.795 14.7425 12.0562 13.9413 13.1227 12.9158C14.1892 11.8903 15.0393 10.6615 15.6228 9.30187C16.2063 7.94226 16.5113 6.47948 16.5198 4.99998C17.1974 4.1614 17.7006 3.19581 17.9998 2.15998C18.0221 2.07814 18.0203 1.99159 17.9946 1.91076C17.9689 1.82992 17.9203 1.75824 17.8548 1.70435C17.7893 1.65046 17.7096 1.61666 17.6253 1.60701C17.5411 1.59736 17.4558 1.61229 17.3798 1.64998C17.0253 1.82064 16.6262 1.87576 16.2386 1.80759C15.8511 1.73942 15.4948 1.55138 15.2198 1.26998C14.8687 0.885561 14.4441 0.575513 13.971 0.35821C13.498 0.140907 12.9861 0.0207699 12.4657 0.00491694C11.9454 -0.010936 11.4272 0.0778181 10.9417 0.26592C10.4563 0.454022 10.0136 0.737644 9.6398 1.09998C9.12799 1.59564 8.75312 2.21527 8.55161 2.89866C8.3501 3.58204 8.3288 4.30594 8.4898 4.99998C5.1398 5.19998 2.8398 3.60998 0.999797 1.42998C0.94452 1.36738 0.872211 1.32224 0.7917 1.30005C0.711189 1.27787 0.625961 1.27961 0.546422 1.30506C0.466884 1.33051 0.396478 1.37858 0.343803 1.44338C0.291128 1.50818 0.258463 1.58692 0.249797 1.66998C-0.100733 3.61441 0.152126 5.61953 0.974415 7.41605C1.7967 9.21258 3.14904 10.7145 4.8498 11.72C3.70943 13.0278 2.10801 13.8446 0.379797 14C0.287209 14.0153 0.201739 14.0593 0.135349 14.1256C0.0689582 14.1919 0.0249704 14.2774 0.00954112 14.3699C-0.00588811 14.4625 0.00801365 14.5576 0.0493008 14.6419C0.0905879 14.7262 0.157194 14.7954 0.239797 14.84C1.74332 15.5913 3.39903 15.9882 5.0798 16Z" fill="url(#paint0_linear)"/>
<defs>
<linearGradient id="paint0_linear" x1="20.0273" y1="-2.19564" x2="-4.23317" y2="5.58103" gradientUnits="userSpaceOnUse">
<stop stop-color="#36EC7C"/>
<stop offset="1" stop-color="#119A8D"/>
</linearGradient>
</defs>
</svg>
