<svg width="83" height="83" viewBox="0 0 83 83" fill="none" xmlns="http://www.w3.org/2000/svg">
<path d="M59.8983 18.3668C59.1522 8.61534 50.9702 0.896484 41.0129 0.896484C31.0555 0.896484 22.8735 8.61534 22.1274 18.3668C8.41356 21.7374 0 28.5043 0 36.2231C0 39.182 1.20929 42.0894 3.5764 44.8425C5.73768 47.364 8.74804 49.6282 12.556 51.5836C20.3778 55.6232 30.4895 57.8359 41.0129 57.8359C51.5362 57.8359 61.6479 55.6232 69.4697 51.5836C73.2777 49.6282 76.288 47.364 78.4493 44.8425C80.8164 42.0894 82.0257 39.182 82.0257 36.2231C82.0257 28.5043 73.5864 21.7374 59.8983 18.3668ZM26.4242 20.065V19.8334C26.4242 11.7801 32.9595 5.24477 41.0129 5.24477C49.0662 5.24477 55.6015 11.7801 55.6015 19.8334V20.065V26.8833C50.9959 28.1955 46.0816 28.8902 41.0129 28.8902C35.9184 28.8902 31.0298 28.2212 26.4242 26.8833V20.065ZM75.1302 42.0123C73.3549 44.0706 70.7047 46.0261 67.4628 47.7242C60.2328 51.455 50.8415 53.4876 41.0129 53.4876C31.1585 53.4876 21.7672 51.4293 14.5629 47.7242C11.321 46.0518 8.67085 44.0706 6.89551 42.0123C5.22309 40.0568 4.37402 38.1271 4.37402 36.2231C4.37402 32.8011 7.20427 30.048 9.59711 28.3499C12.7361 26.1114 17.0072 24.2332 22.0759 22.8695V28.4785C22.0759 29.4305 22.6934 30.2539 23.594 30.5626C29.0744 32.338 34.9407 33.2385 41.0386 33.2385C47.1365 33.2385 53.0028 32.338 58.4832 30.5626C59.3837 30.2796 60.0013 29.4305 60.0013 28.4785V22.8695C65.07 24.2332 69.3411 26.0857 72.4801 28.3499C74.8729 30.048 77.7032 32.8011 77.7032 36.2231C77.6517 38.1271 76.8026 40.0568 75.1302 42.0123Z" fill="url(#paint0_linear)"/>
<path d="M54.1092 43.6331C51.2532 44.2763 48.2943 44.688 45.3354 44.8681C43.9203 44.971 42.8397 46.1803 42.9426 47.5954C43.0198 48.9591 44.1519 49.9883 45.5155 49.9883C45.567 49.9883 45.6184 49.9883 45.6699 49.9883C48.8861 49.7824 52.1023 49.3193 55.2156 48.6246C56.605 48.3159 57.4798 46.9522 57.171 45.5628C56.8622 44.1991 55.4729 43.3243 54.1092 43.6331Z" fill="url(#paint1_linear)"/>
<path d="M36.4073 44.8169C33.294 44.5854 30.438 44.148 27.685 43.4533C26.2956 43.1188 24.9062 43.9421 24.5717 45.3315C24.2372 46.7209 25.0605 48.1103 26.4499 48.4448C29.4346 49.191 32.6508 49.6798 36.0213 49.9371C36.0985 49.9371 36.15 49.9371 36.2272 49.9371C37.5651 49.9371 38.6972 48.9079 38.8001 47.57C38.903 46.1549 37.8481 44.9199 36.4073 44.8169Z" fill="url(#paint2_linear)"/>
<path d="M70.3446 37.0209C68.029 38.539 65.4046 39.8769 62.5486 41.009C61.2364 41.5493 60.5931 43.0416 61.1077 44.3538C61.5194 45.3573 62.4714 45.9748 63.5006 45.9748C63.8093 45.9748 64.1438 45.9233 64.4526 45.7947C67.6173 44.5339 70.5247 43.0416 73.1234 41.3435C74.307 40.5716 74.6415 38.9764 73.8696 37.7928C73.1234 36.6093 71.5282 36.249 70.3446 37.0209Z" fill="url(#paint3_linear)"/>
<path d="M19.4516 40.52C16.5442 39.1563 13.9969 37.6126 11.6298 36.146C10.4205 35.3998 8.85103 35.76 8.07914 36.9693C7.30726 38.1786 7.71893 39.7738 8.92822 40.52C11.424 42.0638 14.0999 43.7104 17.2903 45.177C17.6505 45.3314 18.0107 45.4086 18.371 45.4086C19.3487 45.4086 20.2749 44.8683 20.7123 43.9163C21.3041 42.6555 20.7381 41.1375 19.4516 40.52Z" fill="url(#paint4_linear)"/>
<path d="M25.1377 59.9714C24.0571 59.4826 22.7449 59.9457 22.256 61.0521L13.6624 79.8346C13.1735 80.941 13.6366 82.2275 14.743 82.7164C15.026 82.845 15.3348 82.9222 15.6435 82.9222C16.4669 82.9222 17.2645 82.4591 17.6247 81.6614L26.2184 62.8789C26.7072 61.7468 26.2441 60.4603 25.1377 59.9714Z" fill="url(#paint5_linear)"/>
<path d="M59.7696 61.0263C59.2808 59.9457 57.9686 59.4568 56.8879 59.9457C55.8073 60.4346 55.3184 61.7468 55.8073 62.8274L64.401 81.61C64.7612 82.4076 65.5588 82.8707 66.3821 82.8707C66.6909 82.8707 66.9996 82.8193 67.2827 82.6649C68.389 82.176 68.8522 80.8638 68.3633 79.7832L59.7696 61.0263Z" fill="url(#paint6_linear)"/>
<path d="M41.0129 59.7659C39.8036 59.7659 38.8259 60.7436 38.8259 61.9529V80.7354C38.8259 81.9447 39.8036 82.9225 41.0129 82.9225C42.2222 82.9225 43.1999 81.9447 43.1999 80.7354V61.9529C43.1999 60.7436 42.2222 59.7659 41.0129 59.7659Z" fill="url(#paint7_linear)"/>
<defs>
<linearGradient id="paint0_linear" x1="3.50687e-07" y1="29.3662" x2="95.0524" y2="32.8487" gradientUnits="userSpaceOnUse">
<stop stop-color="#F5C286"/>
<stop offset="1" stop-color="#E68148"/>
</linearGradient>
<linearGradient id="paint1_linear" x1="42.9358" y1="46.7797" x2="59.4727" y2="47.7167" gradientUnits="userSpaceOnUse">
<stop stop-color="#F5C286"/>
<stop offset="1" stop-color="#E68148"/>
</linearGradient>
<linearGradient id="paint2_linear" x1="24.4973" y1="46.658" x2="41.0509" y2="47.5766" gradientUnits="userSpaceOnUse">
<stop stop-color="#F5C286"/>
<stop offset="1" stop-color="#E68148"/>
</linearGradient>
<linearGradient id="paint3_linear" x1="60.9304" y1="41.2939" x2="76.4064" y2="41.8554" gradientUnits="userSpaceOnUse">
<stop stop-color="#F5C286"/>
<stop offset="1" stop-color="#E68148"/>
</linearGradient>
<linearGradient id="paint4_linear" x1="7.68701" y1="40.5833" x2="23.0548" y2="41.1204" gradientUnits="userSpaceOnUse">
<stop stop-color="#F5C286"/>
<stop offset="1" stop-color="#E68148"/>
</linearGradient>
<linearGradient id="paint5_linear" x1="13.4685" y1="71.3499" x2="28.4849" y2="71.5635" gradientUnits="userSpaceOnUse">
<stop stop-color="#F5C286"/>
<stop offset="1" stop-color="#E68148"/>
</linearGradient>
<linearGradient id="paint6_linear" x1="55.6174" y1="71.3133" x2="70.6292" y2="71.527" gradientUnits="userSpaceOnUse">
<stop stop-color="#F5C286"/>
<stop offset="1" stop-color="#E68148"/>
</linearGradient>
<linearGradient id="paint7_linear" x1="38.8259" y1="71.3442" x2="43.9013" y2="71.3685" gradientUnits="userSpaceOnUse">
<stop stop-color="#F5C286"/>
<stop offset="1" stop-color="#E68148"/>
</linearGradient>
</defs>
</svg>
